<svg xmlns="http://www.w3.org/2000/svg" viewBox="0 0 512 512"><title>folder</title><g><g><path d="m482 210h-45c-8.284 0-15-6.716-15-15v-45h-332v45c0 8.284-6.716 15-15 15h-45c-16.569 0-30-13.431-30-30v-135c0-24.853 20.147-45 45-45h91c36.211 0 66.533 25.811 73.506 60h257.494c24.853 0 45 20.147 45 45v75c0 16.569-13.431 30-30 30z" fill="#fb3"/></g></g><path d="m437 210h45c16.569 0 30-13.433 30-30v-75c0-24.853-20.147-45-45-45h-211v90h166v45c0 8.284 6.716 15 15 15z" fill="#f93"/><g><path d="m437 210h-362c-8.291 0-15-6.709-15-15v-60c0-8.291 6.709-15 15-15h362c8.291 0 15 6.709 15 15v60c0 8.291-6.709 15-15 15z" fill="#fff5f5"/></g><g id="Folder_40_"><g><path d="m467 512h-422c-24.853 0-45-20.147-45-45v-287h260l252 287c0 24.853-20.147 45-45 45z" fill="#ffe666"/></g></g><path d="m256 210h181c8.291 0 15-6.709 15-15v-60c0-8.291-6.709-15-15-15h-181z" fill="#efe2dd"/><path d="m512 180h-256v332h211c24.853 0 45-20.147 45-45z" fill="#fb3"/><g><path d="m191.605 276.395c-5.859-5.859-15.352-5.859-21.211 0l-60 60c-5.859 5.859-5.859 15.352 0 21.211l60 60c5.859 5.859 15.351 5.86 21.211 0 5.859-5.859 5.859-15.352 0-21.211l-49.394-49.395 49.395-49.395c5.859-5.859 5.859-15.351-.001-21.21z" fill="#575f64"/><path d="m401.605 336.395-60-60c-5.859-5.859-15.352-5.859-21.211 0s-5.859 15.352 0 21.211l49.395 49.394-49.395 49.395c-5.859 5.859-5.859 15.352 0 21.211s15.351 5.86 21.211 0l60-60c5.86-5.86 5.86-15.352 0-21.211z" fill="#474f54"/><path d="m273.461 242.205c-8.087-1.421-15.879 4.16-17.256 12.334l-30 180c-1.377 8.174 4.16 15.894 12.334 17.256 7.884 1.408 15.857-3.989 17.256-12.334l30-180c1.377-8.174-4.16-15.894-12.334-17.256z" fill="#575f64"/></g><path d="m256 438.23 29.795-178.77c1.377-8.174-4.16-15.894-12.334-17.256-8.087-1.421-15.879 4.16-17.256 12.334l-.205 1.232z" fill="#474f54"/></svg>