<svg xmlns="http://www.w3.org/2000/svg" viewBox="0 0 511.999 511.999"><title>planet-1</title><path style="fill:#BE163A;" d="M416.189,354.158c0-4.557,2.068-9.057,5.99-12.004c6.625-4.977,16.027-3.641,21.004,2.982 c7.338,9.772,14.248,19.369,20.539,28.529c4.689,6.83,2.953,16.166-3.877,20.857c-6.828,4.688-16.166,2.953-20.855-3.877 c-6.049-8.811-12.709-18.059-19.793-27.49C417.167,360.457,416.189,357.295,416.189,354.158z"/><path style="fill:#F1476F;" d="M107.231,55.461c0-2.859,0.816-5.748,2.521-8.306c4.594-6.894,13.906-8.757,20.801-4.162 c11.475,7.648,23.67,16.316,36.25,25.766c6.623,4.976,7.959,14.378,2.984,21.002c-4.977,6.624-14.379,7.96-21.002,2.984 c-12.131-9.112-23.863-17.452-34.871-24.789C109.579,65.067,107.231,60.309,107.231,55.461z"/><path style="fill:#FFCC75;" d="M408.566,408.617c40.766-40.766,63.216-94.968,63.216-152.618s-22.449-111.853-63.216-152.618 C367.8,62.615,313.598,40.163,255.948,40.163c-57.652,0-111.853,22.451-152.618,63.217c-40.766,40.765-63.217,94.967-63.217,152.618 s22.451,111.853,63.217,152.618c40.766,40.766,94.966,63.215,152.618,63.215C313.598,471.833,367.8,449.384,408.566,408.617z"/><path style="fill:#FFA836;" d="M408.566,408.617c40.766-40.766,63.216-94.968,63.216-152.618s-22.449-111.853-63.216-152.618l0,0 L103.329,408.617c40.766,40.766,94.966,63.215,152.618,63.215C313.598,471.833,367.8,449.384,408.566,408.617z"/><path style="fill:#F1476F;" d="M0,33.554C0,23.33,3.023,15.157,9.064,9.117c10.835-10.834,28.534-11.96,52.602-3.35 c18.668,6.678,41.844,19.202,68.888,37.226c6.893,4.595,8.758,13.907,4.162,20.801c-4.594,6.894-13.908,8.757-20.801,4.162 C58.68,31.142,34.832,28.38,30.316,30.371c-2.1,4.74,1.067,30.002,41.086,88.789c35.199,51.703,87.724,113.315,147.896,173.489 c60.17,60.17,121.784,112.694,173.485,147.892c58.793,40.025,84.058,43.186,88.792,41.086c2.145-4.836-1.189-30.689-42.586-90.981 c-4.688-6.828-2.953-16.168,3.875-20.855c6.83-4.689,16.168-2.955,20.855,3.875c19.865,28.93,33.793,53.74,41.396,73.739 c3.625,9.533,14.652,38.535-2.289,55.477c-10.838,10.836-28.541,11.959-52.623,3.342c-18.678-6.686-41.865-19.221-68.923-37.258 c-54.35-36.232-119.411-91.315-183.196-155.103c-63.79-63.789-118.874-128.851-155.106-183.2 C24.941,103.608,12.406,80.418,5.723,61.741C1.908,51.082,0.002,41.671,0,33.554z"/><path style="fill:#BE163A;" d="M502.828,502.882c16.941-16.941,5.914-45.943,2.289-55.477 c-7.603-19.998-21.531-44.809-41.396-73.739c-4.688-6.83-14.025-8.564-20.855-3.875c-6.828,4.688-8.563,14.027-3.875,20.855 c41.396,60.291,44.73,86.146,42.586,90.981c-4.734,2.1-29.998-1.061-88.792-41.086c-51.701-35.197-113.316-87.722-173.485-147.892 l-0.002-0.002l-21.213,21.213l0.002,0.002c63.786,63.788,128.847,118.87,183.196,155.103c27.057,18.037,50.244,30.572,68.923,37.258 C474.287,514.841,491.99,513.718,502.828,502.882z"/></svg>