<svg xmlns="http://www.w3.org/2000/svg" viewBox="0 0 512 512"><title>pizza-1</title><path d="m143.566 392.366c6.403 5.287 8.056 14.421 3.905 21.613l-.001.001-23.97 41.523c-4.538 7.862-14.928 9.874-22.154 4.38-53.452-40.646-90.505-101.791-99.318-171.609-1.125-8.913 5.881-16.78 14.865-16.8l47.987-.104h.051c8.292-.017 15.418 5.945 16.791 14.123 7.188 42.804 29.765 80.386 61.844 106.873z" fill="#ffc900"/><path d="m143.567 119.632c-32.166 26.557-54.777 64.271-61.903 107.217-1.356 8.178-8.471 14.151-16.761 14.151h-48.037c-8.986 0-16.009-7.855-14.901-16.772 8.701-70.032 45.803-131.373 99.379-172.11 7.227-5.495 17.617-3.484 22.155 4.378l23.971 41.524c4.151 7.192 2.5 16.325-3.903 21.612z" fill="#ffc900"/><path d="m216.996 293.558-69.526 120.422c-46.25-31.87-77.88-83.51-82.59-142.61l139.092-.312c11.562-.026 18.805 12.487 13.024 22.5z" fill="#fff900"/><path d="m204.039 241h-139.189c4.61-59.26 36.27-111.04 82.62-142.98l69.56 120.48c5.773 10-1.444 22.5-12.991 22.5z" fill="#fff900"/><path clip-rule="evenodd" d="m147.269 178.069c-8.248-.149-15.119 6.448-15.269 14.727s6.478 15.12 14.727 15.269c8.248.149 15.119-6.448 15.269-14.727s-6.478-15.12-14.727-15.269z" fill="#ff415b" fill-rule="evenodd"/><path d="m509.972 288.274c-8.813 69.818-45.866 130.963-99.318 171.609-7.226 5.495-17.616 3.482-22.154-4.38l-23.97-41.523-.001-.001c-4.151-7.192-2.498-16.326 3.905-21.613 32.078-26.487 54.656-64.069 61.843-106.874 1.373-8.178 8.499-14.139 16.791-14.123h.051l47.987.104c8.985.021 15.991 7.888 14.866 16.801z" fill="#fb8b00"/><path d="m308.028 271.058 139.092.312c-4.71 59.1-36.34 110.74-82.59 142.61l-69.526-120.422c-5.781-10.013 1.462-22.526 13.024-22.5z" fill="#ffc900"/><path clip-rule="evenodd" d="m365.398 303.939c-8.247-.218-15.172 6.322-15.391 14.599s6.352 15.173 14.599 15.391 15.172-6.322 15.391-14.599c.218-8.277-6.352-15.173-14.599-15.391z" fill="#cf0050" fill-rule="evenodd"/><path d="m495.134 241h-48.036c-8.29 0-15.405-5.973-16.762-14.151-7.126-42.946-29.737-80.66-61.903-107.217-6.403-5.286-8.054-14.42-3.903-21.611v-.001l23.971-41.524c4.539-7.862 14.929-9.873 22.155-4.378 53.576 40.737 90.678 102.078 99.379 172.11 1.107 8.917-5.915 16.772-14.901 16.772z" fill="#fb8b00"/><path d="m294.97 218.5 69.56-120.48c46.35 31.94 78.01 83.72 82.62 142.98h-139.189c-11.547 0-18.764-12.5-12.991-22.5z" fill="#ffc900"/><path clip-rule="evenodd" d="m364.731 178.069c8.248-.149 15.119 6.448 15.269 14.727s-6.478 15.12-14.727 15.269c-8.248.149-15.119-6.448-15.269-14.727s6.478-15.12 14.727-15.269z" fill="#cf0050" fill-rule="evenodd"/><path clip-rule="evenodd" d="m146.602 303.939c8.247-.218 15.172 6.322 15.391 14.599s-6.352 15.173-14.599 15.391-15.172-6.322-15.391-14.599c-.218-8.277 6.352-15.173 14.599-15.391z" fill="#ff415b" fill-rule="evenodd"/><path d="m362.576 470.588c4.529 7.845 1.102 17.831-7.242 21.357-30.558 12.914-64.13 20.055-99.334 20.055s-68.776-7.141-99.334-20.055c-8.344-3.526-11.77-13.512-7.242-21.357l23.996-41.568c4.162-7.209 12.92-10.339 20.717-7.425 19.256 7.198 40.103 11.135 61.863 11.135s42.607-3.937 61.863-11.135c7.797-2.914 16.555.216 20.717 7.425z" fill="#ffc900"/><path d="m317.863 421.595c-19.256 7.198-40.103 11.135-61.863 11.135v79.27c35.204 0 68.776-7.141 99.334-20.055 8.344-3.526 11.77-13.512 7.242-21.357l-23.996-41.568c-4.162-7.209-12.92-10.339-20.717-7.425z" fill="#fb8b00"/><path d="m355.325 20.055c8.343 3.526 11.77 13.512 7.241 21.357l-23.996 41.568-.001.001c-4.161 7.207-12.917 10.335-20.711 7.42-19.251-7.2-40.098-11.131-61.858-11.131s-42.607 3.931-61.858 11.131c-7.794 2.915-16.55-.214-20.711-7.42l-.001-.001-23.996-41.568c-4.529-7.845-1.102-17.831 7.241-21.357 30.557-12.914 64.121-20.055 99.325-20.055s68.768 7.141 99.325 20.055z" fill="#ffc900"/><path d="m255.999 0v79.27c21.852 0 42.783 3.964 62.101 11.222 7.745 2.91 16.451-.278 20.469-7.511l.001-.001 23.996-41.568c4.529-7.845 1.102-17.831-7.241-21.357-30.557-12.914-64.121-20.055-99.326-20.055z" fill="#fb8b00"/><path d="m268.99 308.497 69.59 120.522c-25.02 11.99-53.03 18.71-82.58 18.71s-57.56-6.72-82.58-18.71l69.59-120.522c5.774-9.999 20.206-9.999 25.98 0z" fill="#fff900"/><path d="m268.99 308.497c-2.887-5-7.938-7.5-12.99-7.5v146.733c29.55 0 57.56-6.72 82.58-18.71z" fill="#ffc900"/><path d="m243.009 203.499-69.579-120.519c25.02-11.99 53.03-18.71 82.57-18.71s57.55 6.72 82.57 18.71l-69.58 120.519c-5.773 10-20.207 10-25.981 0z" fill="#fff900"/><path d="m268.99 203.499 69.58-120.519c-25.02-11.99-53.03-18.71-82.57-18.71v146.729c5.052 0 10.104-2.5 12.99-7.5z" fill="#ffc900"/><g clip-rule="evenodd" fill-rule="evenodd"><path d="m256 115.135c8.25 0 15 6.72 15 15s-6.75 15-15 15-15-6.72-15-15 6.75-15 15-15z" fill="#ff415b"/><path d="m271 130.135c0-8.28-6.75-15-15-15v30c8.25 0 15-6.72 15-15z" fill="#cf0050"/><path d="m256 366.865c8.25 0 15 6.72 15 15s-6.75 15-15 15-15-6.72-15-15 6.75-15 15-15z" fill="#ff415b"/><path d="m271 381.865c0-8.28-6.75-15-15-15v30c8.25 0 15-6.72 15-15z" fill="#cf0050"/></g></svg>